{"title":"Sherlock SP1 - The Abominable Bride x264 RB58.mp4","uid":13164922,"size":1017895028,"categoryP":"video","categoryS":"tv_shows","magnet":"?xt=urn:btih:16f9fb2394c0960a3a35172fbe026d0c568b03c1&amp;dn=Sherlock+SP1+-+The+Abominable+Bride+x264+RB58.mp4&amp;tr=udp%3A%2F%2Ftracker.leechers-paradise.org%3A6969&amp;tr=udp%3A%2F%2Fzer0day.ch%3A1337&amp;tr=udp%3A%2F%2Fopen.demonii.com%3A1337&amp;tr=udp%3A%2F%2Ftracker.coppersurfer.tk%3A6969&amp;tr=udp%3A%2F%2Fexodus.desync.com%3A6969","seeders":0,"leechers":1,"uploader":"RedBaron58","files":1,"time":1452194514,"description":"Sherlock SP1 x264 mp4\r\n \nhttp://www.imdb.com/title/tt1475582/\r\n\r\nTrailer:\r\n\r\n\r\nPlease be patient My intial upload speed is limited.\r\nThank you for your kind comments and feedback on my other torrents, your feedback is welcome.\r\n\r\n\r\nAbout the Episode:\r\nThomas Ricoletti is somewhat surprised to see his wife dressed in her old wedding gown as only \r\na few hours earlier she took her own life. \r\nThe apparent ghost of Mrs Ricoletti now appears to be prowling the streets with an unslakeable \r\nthirst for revenge. From fog-shrouded Limehouse to the bowels of a ruined church, \r\nHolmes and Watson must use all their cunning to combat an enemy seemingly from beyond the grave. \r\nOne-off special episode set in Victorian London\r\n\r\n\r\nI hope you enjoy.\r\n\r\n\r\nTechnical:\r\n\r\nGeneral\r\nComplete name                            : F:Sherlock SP1 - The Abominable Bride x264 RB58.mp4\r\nFormat                                   : MPEG-4\r\nFormat profile                           : Base Media\r\nCodec ID                                 : isom\r\nFile size                                : 971 MiB\r\nDuration                                 : 1h 29mn\r\nOverall bit rate                         : 1 520 Kbps\r\nWriting application                      : Lavf54.63.104\r\n\r\nVideo\r\nID                                       : 1\r\nFormat                                   : AVC\r\nFormat/Info                              : Advanced Video Codec\r\nFormat profile                           :   \r\nFormat settings, CABAC                   : Yes\r\nFormat settings, ReFrames                : 4 frames\r\nCodec ID                                 : avc1\r\nCodec ID/Info                            : Advanced Video Coding\r\nDuration                                 : 1h 29mn\r\nBit rate                                 : 1 400 Kbps\r\nWidth                                    : 832 pixels\r\nHeight                                   : 468 pixels\r\nDisplay aspect ratio                     : 16:9\r\nFrame rate mode                          : Constant\r\nFrame rate                               : 25.000 fps\r\nColor space                              : YUV\r\nChroma subsampling                       : 4:2:0\r\nBit depth                                : 8 bits\r\nScan type                                : Progressive\r\nBits/(Pixel*Frame)                       : 0.144\r\nStream size                              : 894 MiB (92%)\r\nWriting library                          : x264 core 123 r2189 35cf912\r\nEncoding settings                        : cabac=1 / ref=3 / deblock=1:0:0\r\n\r\nAudio\r\nID                                       : 2\r\nFormat                                   : AAC\r\nFormat/Info                              : Advanced Audio Codec\r\nFormat profile                           : LC\r\nCodec ID                                 : 40\r\nDuration                                 : 1h 29mn\r\nBit rate mode                            : Constant\r\nBit rate                                 : 112 Kbps\r\nChannel(s)                               : 2 channels\r\nChannel positions                        : Front: L R\r\nSampling rate                            : 48.0 KHz\r\nCompression mode                         : Lossy\r\nStream size                              : 71.8 MiB (7%)","torrent":{"xt":"urn:btih:16f9fb2394c0960a3a35172fbe026d0c568b03c1","amp;dn":"Sherlock+SP1+-+The+Abominable+Bride+x264+RB58.mp4","amp;tr":["udp%3A%2F%2Ftracker.leechers-paradise.org%3A6969","udp%3A%2F%2Fzer0day.ch%3A1337","udp%3A%2F%2Fopen.demonii.com%3A1337","udp%3A%2F%2Ftracker.coppersurfer.tk%3A6969","udp%3A%2F%2Fexodus.desync.com%3A6969"],"infoHash":"16f9fb2394c0960a3a35172fbe026d0c568b03c1","infoHashBuffer":{"type":"Buffer","data":[22,249,251,35,148,192,150,10,58,53,23,47,190,2,109,12,86,139,3,193]},"announce":[],"urlList":[]}}